M48
; DRILL file {KiCad 9.0.2-9.0.2-0~ubuntu24.04.1} date 2025-05-27T20:49:59+0000
; FORMAT={-:-/ absolute / metric / decimal}
; #@! TF.CreationDate,2025-05-27T20:49:59+00:00
; #@! TF.GenerationSoftware,Kicad,Pcbnew,9.0.2-9.0.2-0~ubuntu24.04.1
; #@! TF.FileFunction,MixedPlating,1,4
FMAT,2
METRIC
; #@! TA.AperFunction,Plated,PTH,ViaDrill
T1C0.300
; #@! TA.AperFunction,Plated,PTH,ComponentDrill
T2C0.600
; #@! TA.AperFunction,Plated,PTH,ComponentDrill
T3C0.800
; #@! TA.AperFunction,Plated,PTH,ComponentDrill
T4C1.000
; #@! TA.AperFunction,Plated,PTH,ComponentDrill
T5C1.020
; #@! TA.AperFunction,Plated,PTH,ComponentDrill
T6C1.300
; #@! TA.AperFunction,NonPlated,NPTH,ComponentDrill
T7C0.650
; #@! TA.AperFunction,NonPlated,NPTH,ComponentDrill
T8C2.850
; #@! TA.AperFunction,NonPlated,NPTH,ComponentDrill
T9C3.000
%
G90
G05
T1
X54.87Y-71.785
X55.72Y-69.985
X58.37Y-73.735
X59.045Y-71.885
X66.12Y-71.785
X66.97Y-69.985
X69.62Y-73.56
X70.295Y-71.885
X77.37Y-71.785
X78.22Y-69.985
X80.87Y-73.685
X81.545Y-71.885
X87.27Y-73.735
X87.945Y-71.885
X90.67Y-73.785
X91.345Y-71.885
X94.07Y-73.685
X94.45Y-138.675
X94.451Y-135.361
X94.745Y-71.885
X94.95Y-134.875
X95.2Y-138.675
X95.3Y-133.425
X95.375Y-135.375
X95.953Y-138.663
X97.9Y-111.775
X99.539Y-56.899
X99.598Y-57.785
X99.598Y-58.685
X99.85Y-134.672
X99.85Y-135.322
X99.85Y-135.972
X101.7Y-121.825
X102.134Y-111.641
X102.225Y-122.85
X102.624Y-106.327
X102.624Y-107.343
X102.85Y-119.275
X102.869Y-114.435
X102.87Y-110.137
X103.325Y-124.4
X103.545Y-110.36
X104.325Y-124.4
X104.648Y-108.105
X105.351Y-114.856
X105.411Y-119.351
X105.437Y-118.35
X105.439Y-117.397
X105.517Y-115.923
X105.522Y-120.686
X105.57Y-116.735
X105.588Y-113.277
X105.6Y-112.627
X105.6Y-111.821
X105.616Y-114.262
X105.65Y-125.035
X105.792Y-115.335
X105.84Y-118.862
X105.845Y-108.085
X105.88Y-117.874
X105.888Y-120.149
X106.029Y-113.755
X106.04Y-119.517
X106.125Y-136.325
X106.125Y-137.025
X106.125Y-138.325
X106.125Y-139.025
X106.575Y-108.06
X106.575Y-123.4
X106.775Y-136.325
X106.775Y-137.025
X106.775Y-138.325
X106.775Y-139.025
X107.075Y-110.335
X107.075Y-122.95
X107.442Y-104.549
X107.442Y-105.565
X107.442Y-106.581
X107.442Y-107.343
X107.575Y-123.395
X108.075Y-122.95
X108.575Y-123.395
X108.65Y-136.275
X109.075Y-122.95
X109.445Y-110.385
X109.728Y-107.851
X109.871Y-132.522
X110.22Y-110.385
X110.521Y-132.522
X110.57Y-107.985
X111.075Y-110.39
X111.171Y-132.522
X111.55Y-123.015
X111.822Y-110.383
X112.076Y-122.533
X112.1Y-123.393
X112.525Y-106.025
X112.575Y-122.95
X112.65Y-62.375
X112.825Y-106.875
X113.075Y-123.395
X113.55Y-62.925
X113.575Y-122.95
X113.825Y-106.875
X113.85Y-136.425
X113.85Y-137.075
X113.85Y-137.675
X114.075Y-123.395
X114.45Y-62.375
X114.575Y-122.95
X114.65Y-131.5
X115.05Y-136.625
X115.075Y-123.395
X115.3Y-138.075
X115.35Y-62.925
X115.35Y-130.625
X115.35Y-131.5
X115.425Y-134.25
X115.575Y-107.05
X115.975Y-110.35
X116.025Y-131.5
X116.25Y-62.375
X116.3Y-133.425
X116.575Y-107.05
X116.65Y-121.85
X116.675Y-110.35
X116.825Y-106.025
X117.095Y-121.35
X117.15Y-62.375
X117.3Y-107.625
X117.3Y-133.425
X117.7Y-120.375
X117.85Y-107.125
X118.05Y-62.925
X118.175Y-134.25
X118.364Y-111.407
X118.377Y-107.645
X118.55Y-119.85
X118.75Y-126.325
X118.85Y-59.675
X119.1Y-134.275
X119.126Y-108.867
X119.126Y-109.883
X119.625Y-124.6
X119.625Y-125.6
X119.65Y-136.625
X119.67Y-61.785
X119.9Y-138.075
X120.025Y-134.25
X120.425Y-127.65
X120.59Y-105.865
X120.59Y-106.765
X120.9Y-133.425
X121.325Y-115.325
X121.35Y-123.927
X121.35Y-124.927
X121.662Y-109.14
X121.9Y-120.045
X121.9Y-133.425
X122.174Y-110.375
X122.2Y-115.275
X122.225Y-109.375
X122.775Y-134.25
X122.936Y-111.325
X123.1Y-115.275
X123.2Y-136.625
X123.3Y-57.725
X123.55Y-125.325
X124.0Y-115.3
X124.35Y-61.225
X124.35Y-62.025
X124.7Y-120.175
X124.95Y-114.8
X125.35Y-61.225
X125.35Y-62.025
X125.7Y-115.575
X126.075Y-114.45
X126.1Y-119.5
X126.2Y-137.025
X126.375Y-109.375
X126.7Y-115.575
X126.9Y-113.525
X126.95Y-106.725
X127.25Y-134.775
X127.25Y-135.825
X127.4Y-124.95
X127.9Y-121.575
X127.9Y-138.925
X128.35Y-134.775
X128.35Y-135.825
X128.875Y-124.675
X129.225Y-118.925
X129.6Y-136.625
X129.8Y-133.725
X129.9Y-124.961
X130.1Y-118.925
X130.325Y-129.675
X130.35Y-124.175
X130.675Y-121.175
X131.1Y-135.525
X131.1Y-136.425
X131.15Y-115.125
X131.15Y-116.225
X131.35Y-118.275
X131.35Y-125.625
X131.4Y-128.975
X131.8Y-106.175
X131.9Y-133.925
X131.95Y-116.775
X131.95Y-139.425
X132.05Y-135.775
X132.2Y-111.725
X132.2Y-113.725
X132.35Y-118.275
X132.35Y-125.625
X132.7Y-132.175
X132.9Y-116.775
X133.3Y-110.375
X133.3Y-122.825
X133.85Y-136.575
X133.85Y-138.925
X133.95Y-109.925
X133.95Y-118.922
X133.95Y-119.922
X134.05Y-132.625
X134.1Y-133.525
X134.15Y-128.175
X134.15Y-129.075
X134.3Y-135.775
X134.47Y-142.163
X136.15Y-138.925
T3
X98.079Y-54.584
X99.709Y-54.584
X101.449Y-54.584
X103.079Y-54.584
T4
X50.0Y-140.895
X50.0Y-143.435
X50.0Y-145.975
X52.54Y-140.895
X52.54Y-143.435
X52.54Y-145.975
X55.08Y-140.895
X55.08Y-143.435
X55.08Y-145.975
X57.62Y-140.895
X57.62Y-143.435
X57.62Y-145.975
X60.16Y-140.895
X60.16Y-143.435
X60.16Y-145.975
X62.7Y-140.895
X62.7Y-143.435
X62.7Y-145.975
X65.24Y-140.895
X65.24Y-143.435
X65.24Y-145.975
X67.78Y-140.895
X67.78Y-143.435
X67.78Y-145.975
X70.32Y-140.895
X70.32Y-143.435
X70.32Y-145.975
X72.86Y-140.895
X72.86Y-143.435
X72.86Y-145.975
X75.4Y-140.895
X75.4Y-143.435
X75.4Y-145.975
X77.94Y-140.895
X77.94Y-143.435
X77.94Y-145.975
X80.48Y-140.895
X80.48Y-143.435
X80.48Y-145.975
X83.02Y-140.895
X83.02Y-143.435
X83.02Y-145.975
X85.56Y-140.895
X85.56Y-143.435
X85.56Y-145.975
X88.1Y-140.895
X88.1Y-143.435
X88.1Y-145.975
X90.64Y-140.895
X90.64Y-143.435
X90.64Y-145.975
X93.18Y-140.895
X93.18Y-143.435
X93.18Y-145.975
X95.72Y-140.895
X95.72Y-143.435
X95.72Y-145.975
X98.26Y-140.895
X98.26Y-143.435
X98.26Y-145.975
X100.8Y-140.895
X100.8Y-143.435
X100.8Y-145.975
X103.34Y-140.895
X103.34Y-143.435
X103.34Y-145.975
X105.88Y-140.895
X105.88Y-143.435
X105.88Y-145.975
X106.864Y-55.785
X106.864Y-58.325
X108.42Y-140.895
X108.42Y-143.435
X108.42Y-145.975
X109.404Y-55.785
X109.404Y-58.325
X110.96Y-140.895
X110.96Y-143.435
X110.96Y-145.975
X111.914Y-55.785
X111.914Y-58.325
X113.5Y-140.895
X113.5Y-143.435
X113.5Y-145.975
X114.454Y-55.785
X114.454Y-58.325
X116.04Y-140.895
X116.04Y-143.435
X116.04Y-145.975
X118.58Y-140.895
X118.58Y-143.435
X118.58Y-145.975
X121.12Y-140.895
X121.12Y-143.435
X121.12Y-145.975
X123.66Y-140.895
X123.66Y-143.435
X123.66Y-145.975
X126.2Y-140.895
X126.2Y-143.435
X126.2Y-145.975
X128.74Y-140.895
X128.74Y-143.435
X128.74Y-145.975
T5
X54.87Y-60.47
X54.87Y-63.47
X57.87Y-60.47
X57.87Y-63.47
X66.12Y-60.47
X66.12Y-63.47
X69.12Y-60.47
X69.12Y-63.47
X77.37Y-60.47
X77.37Y-63.47
X80.37Y-60.47
X80.37Y-63.47
X88.67Y-60.47
X88.67Y-63.47
X91.67Y-60.47
X91.67Y-63.47
T6
X97.079Y-56.834
X104.079Y-56.834
T7
X119.16Y-57.64
X124.94Y-57.64
T8
X44.92Y-148.515
X133.82Y-148.515
T9
X56.37Y-56.15
X67.62Y-56.15
X78.87Y-56.15
X90.17Y-56.15
T2
X117.73Y-54.36G85X117.73Y-53.56
G05
X117.73Y-58.69G85X117.73Y-57.59
G05
X126.37Y-54.36G85X126.37Y-53.56
G05
X126.37Y-58.69G85X126.37Y-57.59
G05
M30
